<?xml version="1.0" encoding="utf-8"?><svg xmlns="http://www.w3.org/2000/svg" xmlns:xlink="http://www.w3.org/1999/xlink"><symbol id="Pen" viewBox="0 0 25 25" enable-background="new 0 0 25 25" xml:space="preserve">
<g>
	<path d="M20.6,11.3L6.9,25H0v-6.9L13.7,4.4L20.6,11.3z M7.5,21.4l-3.9-3.9L2.1,19v1.8h2.1v2.1H6L7.5,21.4z M14.3,7.2
		c-0.1,0-0.2,0-0.3,0.1L5,16.3c-0.1,0.1-0.1,0.2-0.1,0.3c0,0.2,0.1,0.4,0.4,0.4c0.1,0,0.2,0,0.3-0.1l8.9-8.9
		c0.1-0.1,0.1-0.2,0.1-0.3C14.6,7.4,14.5,7.2,14.3,7.2z M24.4,7.5l-2.7,2.7l-6.9-6.9l2.7-2.7C17.9,0.2,18.4,0,19,0s1.1,0.2,1.5,0.6
		l3.9,3.9C24.8,4.9,25,5.4,25,6S24.8,7.1,24.4,7.5z" fill="#FFFFFF" opacity="0.34"/>
</g>
</symbol><symbol id="Small_dash" viewBox="0 0 11 37" enable-background="new 0 0 11 37" xml:space="preserve">
<line fill="none" stroke="#FFFFFF" stroke-width="2" stroke-linecap="round" stroke-linejoin="round" stroke-miterlimit="10" stroke-dasharray="6" x1="1" y1="36" x2="12" y2="36" stroke-opacity="0.34"/>
</symbol><symbol viewBox="0 0 25 25" id="Star"><path d="M22.7,17.7l-1,1.8c-0.6,1-1.6,1.3-2.6,0.8L15,17.7v4.9c0,1.1-1.3,2.3-2.5,2.3h-2.1C9.3,25,8,23.8,8,22.7v-4.9l-4.1,2.5c-1,0.6-2.2,0.2-2.7-0.8l-1-1.8c-0.6-1-0.2-2.3,0.8-2.8l4.3-2.5L1,9.9C0,9.3-0.3,8.1,0.3,7.1l1-1.8c0.6-1,1.6-1.3,2.6-0.8L8,7V2.1C8,0.9,9.3,0,10.5,0h2.1C13.7,0,15,0.9,15,2.1V7l4.1-2.5c1-0.6,2.2-0.2,2.7,0.8l1,1.8c0.6,1,0.2,2.3-0.8,2.8l-4.3,2.5l4.3,2.5C23,15.4,23.3,16.7,22.7,17.7z" fill="#e04c1b"/></symbol></svg>